<?xml version="1.0" encoding="UTF-8" standalone="no"?>
<svg
   xmlns:dc="http://purl.org/dc/elements/1.1/"
   xmlns:cc="http://creativecommons.org/ns#"
   xmlns:rdf="http://www.w3.org/1999/02/22-rdf-syntax-ns#"
   xmlns:svg="http://www.w3.org/2000/svg"
   xmlns="http://www.w3.org/2000/svg"
   id="svg1159"
   version="1.1"
   height="477"
   width="477">
  <metadata
     id="metadata1165">
    <rdf:RDF>
      <cc:Work
         rdf:about="">
        <dc:format>image/svg+xml</dc:format>
        <dc:type
           rdf:resource="http://purl.org/dc/dcmitype/StillImage" />
        <dc:title></dc:title>
      </cc:Work>
    </rdf:RDF>
  </metadata>
  <defs
     id="defs1163" />
  <g
     transform="translate(-1.7410913,33.843451)"
     id="g5425">
    <path
       style="fill:#ffcd3d;stroke:none"
       d="M 207,20 V 51 C 199.711,44.6927 191.71,39.1558 184,33.3734 178.205,29.0269 172.567,24.1204 166,21 c 5.256,9.4413 11.993,18.0346 17.999,27 2.529,3.7744 5.97386,8.565379 9.185,11.9722 6.02739,6.394693 3.52323,11.628036 9.43623,11.628436 l 63.80896,-0.310871 c 4.751,-3e-4 7.60316,-1.790519 12.31816,-2.115519 -2.93891,4.854966 3.67552,-4.430718 6.28952,-5.917618 C 291.12106,55.639214 294.483,51.7751 297,48 c 5.958,-8.9366 12.777,-17.6288 18,-27 -5.261,2.2269 -9.401,6.2388 -14,9.5748 -9.105,6.6037 -18.491,13.0617 -27,20.4252 0,-9.7484 -0.584,-19.3046 -1,-29 -5.961,7.1948 -13.415,19.0266 -16,28 v 0 c -2.912,-9.9002 -10.335,-19.4385 -16,-28 -7.486,6.3702 -13.802,19.1237 -18,28 -5.569,-9.5407 -8.957,-21.4996 -16,-30 m -17.333,42.3333 c -0.445,0.4446 0.611,0.3889 0.666,0.3334 0.445,-0.4443 -0.611,-0.389 -0.666,-0.3334 z"
       id="path1139" />
    <a
       id="a1710">
      <path
         id="path1141"
         d="m 129,133 c 3.699,1.552 8.017,1 12,1 h 21 77 v 11 H 105 C 80.0863,145 54.5304,142.46 33,157.348 9.73397,173.436 9,197.479 9,223 c 0,22.064 -1.5147,42.98 13.6157,60.985 3.2721,3.894 7.2605,7.132 11.3843,10.091 21.8123,15.653 51.7194,10.924 77,10.924 0,-13.257 -1.495,-27.233 2.671,-40 10.414,-31.913 42.667,-44 73.329,-44 h 82 c 27.133,0 53.771,-0.117 72.671,-23 C 354.421,182.563 353,163.711 353,145 v -29 c 0,-9.966 0.296,-18.5031 -5.789,-27 C 337.545,75.5013 319.627,68.7148 304,65.2068 283.04,60.5019 261.388,62 240,62 c -24.632,0 -49.137,-1.7043 -73,5.4383 -4.439,1.3288 -12.121,3.288 -14.987,7.199 -3.61,4.927 -2.592,15.4861 -3.182,21.3627 -1.603,15.971 -5.806,28.202 -19.831,37 z"
         style="fill:#376f9d;stroke:none" />
    </a>
    <path
       style="fill:#ffcd3d;stroke:none"
       d="m 300.667,64.3333 c -0.445,0.4445 0.611,0.3889 0.666,0.3334 0.445,-0.4445 -0.611,-0.3889 -0.666,-0.3334 M 174,65 l 1,1 -1,-1 m 131,0 1,1 -1,-1 m -135,1 1,1 -1,-1 m 139,0 1,1 -1,-1 m 3,1 1,1 -1,-1 m -151,2 1,1 -1,-1 m 157,0 1,1 -1,-1 m -162,2 1,1 -1,-1 m 167,0 1,1 -1,-1 m -169,1 1,1 -1,-1 m 171,0 1,1 -1,-1 m -173,1 1,1 -1,-1 m 175,0 1,1 -1,-1 M 57,128 c 20.1613,-0.43 43.898,-24.406 63,-9 l 1.05665,0.89325 c 2.613,1.098 -1.89265,0.0998 0.94335,0.10675 -5.341,1.623 -11.41,2.756 -17,3 0,2.849 -2.506,2.364 -5,3.333 -4.1915,1.63 -8.0203,3.677 -12,5.667 12.133,5.091 30.553,-11.144 41,1 5.146,-2.406 7.828,-3.517 11.363,-8.09 7.096,-9.183 7.703,-21.876 8.806,-32.91 0.599,-5.9951 1.707,-11.97 1.831,-18 -25.79,0.5324 -53.6777,10.0921 -74,26.015 -8.9366,7.001 -18.2483,16.298 -20,27.985 m 272,-54 1,1 -1,-1 m 5,3 1,1 -1,-1 m -163.333,9.3333 c -0.445,0.4446 0.611,0.3888 0.666,0.3334 0.445,-0.4443 -0.611,-0.389 -0.666,-0.3334 z"
       id="path1143" />
    <path
       style="fill:#fefefe;stroke:none"
       d="m 172,86.4398 c -3.132,0.4992 -6.233,1.3399 -8.999,2.9275 -1.747,1.0024 -3.387,2.2196 -4.722,3.7376 -10.889,12.3811 8.842,23.1151 19.721,21.4551 3.433,-0.524 6.959,-1.33 9.985,-3.093 6.803,-3.962 9.757,-13.0921 3.787,-19.2533 C 186.971,87.2598 178.617,85.385 172,86.4398 Z"
       id="path1145" />
    <path
       style="fill:#ffcd3d;stroke:none"
       d="m 183,87 1,1 -1,-1 m -19,1 1,1 -1,-1 m -2,1 1,1 -1,-1 m 185,0 1,1 -1,-1 m 2,3 1,1 -1,-1 m 1,2 1,1 -1,-1 m -194,11 1,1 -1,-1 m 37,1 1,1 -1,-1 m -4,4 1,1 -1,-1 m -22,3 1,1 -1,-1 m 16,0 1,1 z"
       id="path1147" />
    <path
       style="fill:#d61716;stroke:none"
       d="m 60,134 c 5.5661,1.991 13.5009,-2.009 19,-3.579 13.7447,-3.923 45.92999,-7.35294 43,-10.421 -5.996,-2.516 -13.77468,-0.045 -20,1.576 -14.3015,3.153 -27.7845,9.135 -42,12.424 z"
       id="path1149" />
    <path
       style="fill:#ffcd3d;stroke:none"
       d="m 369,145 c 0,14.531 1.274,29.089 -3.698,43 -1.929,5.396 -4.879,10.447 -8.342,15 -25.849,33.979 -71.483,27 -108.96,27 h -35 c -30.25,0 -63.979,0.04 -80.215,31 -2.584,4.926 -5.005,10.421 -5.611,16 -1.771,16.295 -0.174,33.606 -0.174,50 0,14.469 -1.53,27.422 9.439,38.572 8.178,8.312 18.666,13.097 29.561,16.761 27.28,9.174 57.605,6.667 86,6.667 16.284,0 34.196,0.739 50,-3.576 16.554,-4.521 33.388,-9.343 44.62,-23.424 9.717,-12.182 6.38,-30.416 6.38,-45 H 240 v -12 h 137 c 23.52,0 48.464,3.347 69,-10.52 12.775,-8.627 22.148,-22.147 24.561,-37.48 1.872,-11.895 0.439,-24.969 0.439,-37 0,-22.032 0.267,-42.765 -18.015,-58.561 C 429.48,141.13 397.898,145 369,145"
       id="path1155" />
    <path
       style="fill:#fefefe;stroke:none"
       d="m 296,334.529 c -10.911,2.518 -19.079,14.232 -8.895,23.081 5.719,4.969 14.746,5.422 21.895,3.871 10.796,-2.342 18.506,-13.397 8.895,-22.256 -5.381,-4.96 -14.927,-6.304 -21.895,-4.696 z"
       id="path1157" />
  </g>
</svg>
